{"glyphs":{"0":{"ha":882,"x_min":34,"x_max":848,"o":"m 509 1057 l 373 1046 l 373 232 l 509 243 l 509 1057 m 34 1356 l 848 1424 l 848 -68 l 34 -136 l 34 1356 z "},"1":{"ha":407,"x_min":34,"x_max":373,"o":"m 373 -107 l 34 -136 l 34 1356 l 373 1385 l 373 -107 z "},"2":{"ha":882,"x_min":34,"x_max":848,"o":"m 34 1017 l 34 1356 l 848 1424 l 848 509 l 373 469 l 373 232 l 848 271 l 848 -68 l 34 -136 l 34 780 l 509 819 l 509 1057 l 34 1017 z "},"3":{"ha":882,"x_min":34,"x_max":848,"o":"m 848 576 l 848 -68 l 34 -136 l 34 203 l 509 243 l 509 480 l 34 441 l 34 780 l 509 819 l 509 1057 l 34 1017 l 34 1356 l 848 1424 l 848 780 l 746 678 l 848 576 z "},"4":{"ha":882,"x_min":34,"x_max":848,"o":"m 34 441 l 34 1356 l 373 1385 l 373 808 l 509 819 l 509 1396 l 848 1424 l 848 -68 l 509 -96 l 509 480 l 34 441 z "},"5":{"ha":882,"x_min":34,"x_max":848,"o":"m 373 231 l 509 243 l 509 480 l 34 441 l 34 1356 l 848 1424 l 848 1085 l 373 1046 l 373 808 l 848 848 l 848 -68 l 34 -136 l 34 348 l 373 373 l 373 231 z "},"6":{"ha":882,"x_min":34,"x_max":848,"o":"m 34 1356 l 848 1424 l 848 1085 l 373 1046 l 373 808 l 848 848 l 848 -68 l 34 -136 l 34 1356 m 373 231 l 509 243 l 509 480 l 373 469 l 373 231 z "},"7":{"ha":882,"x_min":34,"x_max":848,"o":"m 509 1017 l 34 978 l 34 1317 l 848 1385 l 848 -107 l 509 -136 l 509 1017 z "},"8":{"ha":882,"x_min":34,"x_max":848,"o":"m 373 232 l 509 243 l 509 480 l 373 469 l 373 232 m 509 1057 l 373 1046 l 373 808 l 509 819 l 509 1057 m 848 576 l 848 -68 l 34 -136 l 34 475 l 136 576 l 34 678 l 34 1356 l 848 1424 l 848 780 l 746 678 l 848 576 z "},"9":{"ha":882,"x_min":34,"x_max":848,"o":"m 848 1424 l 848 -68 l 34 -136 l 34 203 l 509 243 l 509 480 l 34 441 l 34 1356 l 848 1424 m 509 1057 l 373 1046 l 373 808 l 509 819 l 509 1057 z "},"\u0000":{"ha":0,"x_min":0,"x_max":0,"o":""},"\u001d":{"ha":0,"x_min":0,"x_max":0,"o":""}," ":{"ha":475,"x_min":0,"x_max":0,"o":""}," ":{"ha":475,"x_min":0,"x_max":0,"o":""},"!":{"ha":407,"x_min":34,"x_max":373,"o":"m 373 198 l 373 -107 l 34 -136 l 34 170 l 373 198 m 34 294 l 34 1356 l 373 1385 l 373 327 l 34 294 z "},"\"":{"ha":848,"x_min":34,"x_max":814,"o":"m 441 1424 l 305 1023 l 34 989 l 102 1396 l 441 1424 m 814 1424 l 678 1023 l 407 989 l 475 1396 l 814 1424 z "},"#":{"ha":1086,"x_min":34,"x_max":1053,"o":"m 475 646 l 475 547 l 610 559 l 610 658 l 475 646 m 475 986 l 610 998 l 610 1396 l 949 1424 l 949 1025 l 1051 1034 l 1051 694 l 949 686 l 949 587 l 1053 595 l 1053 256 l 949 248 l 949 -68 l 610 -96 l 610 218 l 475 206 l 475 -107 l 136 -136 l 136 178 l 34 170 l 34 509 l 136 517 l 136 619 l 34 610 l 34 949 l 136 958 l 136 1356 l 475 1385 l 475 986 z "},"$":{"ha":882,"x_min":34,"x_max":848,"o":"m 610 -87 l 610 -209 l 271 -237 l 271 -116 l 34 -136 l 34 348 l 373 373 l 373 231 l 509 243 l 509 480 l 34 441 l 34 1356 l 271 1376 l 271 1504 l 610 1533 l 610 1404 l 848 1424 l 848 944 l 509 916 l 509 1057 l 373 1046 l 373 808 l 848 848 l 848 -68 l 610 -87 z "},"%":{"ha":1017,"x_min":34,"x_max":983,"o":"m 363 -96 l 40 13 l 631 1383 l 954 1274 l 363 -96 m 983 435 l 983 130 l 644 102 l 644 407 l 983 435 m 373 1221 l 373 916 l 34 887 l 34 1192 l 373 1221 z "},"&":{"ha":1051,"x_min":34,"x_max":1017,"o":"m 373 232 l 509 243 l 509 480 l 373 469 l 373 232 m 509 1057 l 373 1046 l 373 808 l 509 819 l 509 1057 m 582 -90 l 34 -136 l 34 475 l 136 576 l 34 678 l 34 1356 l 848 1424 l 848 780 l 746 678 l 848 576 l 848 122 l 1017 -50 l 758 -267 l 582 -90 z "},"'":{"ha":475,"x_min":34,"x_max":441,"o":"m 441 1424 l 305 1023 l 34 989 l 102 1396 l 441 1424 z "},"(":{"ha":543,"x_min":34,"x_max":509,"o":"m 509 -96 l 34 -136 l 34 1356 l 509 1396 l 509 1057 l 373 1046 l 373 232 l 509 243 l 509 -96 z "},")":{"ha":543,"x_min":34,"x_max":509,"o":"m 34 231 l 170 243 l 170 1057 l 34 1045 l 34 1385 l 509 1424 l 509 -68 l 34 -107 l 34 231 z "},"*":{"ha":614,"x_min":34,"x_max":580,"o":"m 230 1200 l 219 1351 l 355 1360 l 366 1210 l 490 1297 l 568 1185 l 438 1095 l 580 1023 l 518 902 l 383 970 l 394 819 l 258 810 l 248 960 l 124 873 l 46 985 l 176 1076 l 34 1147 l 96 1268 l 230 1200 z "},"+":{"ha":746,"x_min":34,"x_max":712,"o":"m 543 807 l 712 814 l 712 475 l 543 467 l 543 271 l 203 243 l 203 450 l 34 441 l 34 785 l 203 793 l 203 1023 l 543 1051 l 543 807 z "},",":{"ha":475,"x_min":34,"x_max":441,"o":"m 441 198 l 305 -203 l 34 -237 l 102 170 l 441 198 z "},"-":{"ha":566,"x_min":34,"x_max":532,"o":"m 507 831 l 532 492 l 58 458 l 34 796 l 507 831 z "},"­":{"ha":566,"x_min":34,"x_max":532,"o":"m 507 831 l 532 492 l 58 458 l 34 796 l 507 831 z "},".":{"ha":407,"x_min":34,"x_max":373,"o":"m 373 198 l 373 -107 l 34 -136 l 34 170 l 373 198 z "},"/":{"ha":982,"x_min":34,"x_max":948,"o":"m 357 -96 l 34 13 l 625 1383 l 948 1274 l 357 -96 z "},":":{"ha":407,"x_min":34,"x_max":373,"o":"m 373 198 l 373 -107 l 34 -136 l 34 170 l 373 198 m 373 605 l 373 300 l 34 271 l 34 576 l 373 605 z "},";":{"ha":475,"x_min":34,"x_max":441,"o":"m 441 198 l 305 -203 l 34 -237 l 102 170 l 441 198 m 441 605 l 441 300 l 102 271 l 102 576 l 441 605 z "},";":{"ha":475,"x_min":34,"x_max":441,"o":"m 441 198 l 305 -203 l 34 -237 l 102 170 l 441 198 m 441 605 l 441 300 l 102 271 l 102 576 l 441 605 z "},"<":{"ha":814,"x_min":34,"x_max":780,"o":"m 34 576 l 780 949 l 780 610 l 373 475 l 780 339 l 780 0 l 34 305 l 34 576 z "},"=":{"ha":746,"x_min":34,"x_max":712,"o":"m 712 848 l 712 576 l 34 543 l 34 814 l 712 848 m 712 441 l 712 170 l 34 136 l 34 407 l 712 441 z "},">":{"ha":814,"x_min":34,"x_max":780,"o":"m 780 373 l 34 0 l 34 339 l 441 475 l 34 610 l 34 949 l 780 644 l 780 373 z "},"?":{"ha":882,"x_min":34,"x_max":848,"o":"m 610 198 l 610 -107 l 271 -136 l 271 170 l 610 198 m 509 644 l 509 1057 l 373 1046 l 373 944 l 441 949 l 441 712 l 34 678 l 34 1356 l 848 1424 l 848 469 l 610 438 l 610 327 l 271 294 l 271 625 l 509 644 z "},"@":{"ha":882,"x_min":34,"x_max":848,"o":"m 848 576 l 441 543 l 441 882 l 509 887 l 509 1057 l 373 1046 l 373 232 l 509 243 l 509 480 l 848 509 l 848 -68 l 34 -136 l 34 1356 l 848 1424 l 848 576 z "},"A":{"ha":882,"x_min":34,"x_max":848,"o":"m 509 1057 l 373 1046 l 373 644 l 509 655 l 509 1057 m 373 -107 l 34 -136 l 34 1356 l 848 1424 l 848 -68 l 509 -96 l 509 316 l 373 305 l 373 -107 z "},"B":{"ha":882,"x_min":34,"x_max":848,"o":"m 373 232 l 509 243 l 509 480 l 373 469 l 373 232 m 509 1057 l 373 1046 l 373 808 l 509 819 l 509 1057 m 848 576 l 848 -68 l 34 -136 l 34 1356 l 848 1424 l 848 780 l 746 678 l 848 576 z "},"C":{"ha":882,"x_min":34,"x_max":848,"o":"m 509 243 l 509 480 l 848 509 l 848 -68 l 34 -136 l 34 1356 l 848 1424 l 848 848 l 509 819 l 509 1057 l 373 1046 l 373 232 l 509 243 z "},"D":{"ha":882,"x_min":34,"x_max":848,"o":"m 509 1057 l 373 1046 l 373 232 l 509 243 l 509 1057 m 701 -80 l 34 -136 l 34 1356 l 675 1410 l 848 1281 l 848 120 l 701 -80 z "},"E":{"ha":882,"x_min":34,"x_max":848,"o":"m 34 1356 l 848 1424 l 848 1085 l 373 1046 l 373 808 l 848 848 l 848 509 l 373 469 l 373 232 l 848 271 l 848 -68 l 34 -136 l 34 1356 z "},"F":{"ha":882,"x_min":34,"x_max":848,"o":"m 34 1356 l 848 1424 l 848 1085 l 373 1046 l 373 808 l 848 848 l 848 509 l 373 469 l 373 -107 l 34 -136 l 34 1356 z "},"G":{"ha":882,"x_min":34,"x_max":848,"o":"m 848 848 l 509 819 l 509 1057 l 373 1046 l 373 232 l 509 243 l 509 345 l 441 339 l 441 678 l 848 712 l 848 -68 l 34 -136 l 34 1356 l 848 1424 l 848 848 z "},"H":{"ha":882,"x_min":34,"x_max":848,"o":"m 373 -107 l 34 -136 l 34 1356 l 373 1385 l 373 808 l 509 819 l 509 1396 l 848 1424 l 848 -68 l 509 -96 l 509 480 l 373 469 l 373 -107 z "},"I":{"ha":407,"x_min":34,"x_max":373,"o":"m 373 -107 l 34 -136 l 34 1356 l 373 1385 l 373 -107 z "},"J":{"ha":882,"x_min":34,"x_max":848,"o":"m 509 1396 l 848 1424 l 848 -68 l 34 -136 l 34 203 l 509 243 l 509 1396 z "},"K":{"ha":882,"x_min":34,"x_max":983,"o":"m 373 252 l 373 -107 l 34 -136 l 34 1356 l 373 1385 l 373 808 l 509 819 l 509 1396 l 848 1424 l 848 509 l 614 489 l 983 116 l 724 -102 l 373 252 z "},"L":{"ha":882,"x_min":34,"x_max":848,"o":"m 373 232 l 848 271 l 848 -68 l 34 -136 l 34 1356 l 373 1385 l 373 232 z "},"M":{"ha":1356,"x_min":34,"x_max":1322,"o":"m 509 1057 l 373 1046 l 373 -107 l 34 -136 l 34 1356 l 848 1424 l 848 1385 l 1322 1424 l 1322 -68 l 983 -96 l 983 1057 l 848 1046 l 848 -107 l 509 -136 l 509 1057 z "},"N":{"ha":882,"x_min":34,"x_max":848,"o":"m 373 -107 l 34 -136 l 34 1356 l 848 1424 l 848 -68 l 509 -96 l 509 1057 l 373 1046 l 373 -107 z "},"O":{"ha":882,"x_min":34,"x_max":848,"o":"m 509 1057 l 373 1046 l 373 232 l 509 243 l 509 1057 m 34 1356 l 848 1424 l 848 -68 l 34 -136 l 34 1356 z "},"P":{"ha":882,"x_min":34,"x_max":848,"o":"m 509 1057 l 373 1046 l 373 808 l 509 819 l 509 1057 m 373 -107 l 34 -136 l 34 1356 l 848 1424 l 848 509 l 373 469 l 373 -107 z "},"Q":{"ha":882,"x_min":34,"x_max":848,"o":"m 509 1057 l 373 1046 l 373 232 l 509 243 l 509 1057 m 34 1356 l 848 1424 l 848 -68 l 705 -80 l 780 -155 l 520 -373 l 266 -117 l 34 -136 l 34 1356 z "},"R":{"ha":882,"x_min":34,"x_max":983,"o":"m 509 1057 l 373 1046 l 373 808 l 509 819 l 509 1057 m 373 252 l 373 -107 l 34 -136 l 34 1356 l 848 1424 l 848 509 l 614 489 l 983 116 l 724 -102 l 373 252 z "},"S":{"ha":882,"x_min":34,"x_max":848,"o":"m 373 231 l 509 243 l 509 480 l 34 441 l 34 1356 l 848 1424 l 848 944 l 509 916 l 509 1057 l 373 1046 l 373 808 l 848 848 l 848 -68 l 34 -136 l 34 348 l 373 373 l 373 231 z "},"T":{"ha":882,"x_min":34,"x_max":848,"o":"m 610 -87 l 271 -116 l 271 1037 l 34 1017 l 34 1356 l 848 1424 l 848 1085 l 610 1065 l 610 -87 z "},"U":{"ha":882,"x_min":34,"x_max":848,"o":"m 509 1396 l 848 1424 l 848 -68 l 34 -136 l 34 1356 l 373 1385 l 373 232 l 509 243 l 509 1396 z "},"V":{"ha":882,"x_min":34,"x_max":848,"o":"m 34 1356 l 373 1390 l 441 237 l 509 1390 l 848 1424 l 712 -80 l 166 -125 l 34 1356 z "},"W":{"ha":1356,"x_min":34,"x_max":1322,"o":"m 848 232 l 983 243 l 983 1396 l 1322 1424 l 1322 -68 l 509 -136 l 509 -96 l 34 -136 l 34 1356 l 373 1385 l 373 232 l 509 243 l 509 1396 l 848 1424 l 848 232 z "},"X":{"ha":882,"x_min":34,"x_max":848,"o":"m 272 627 l 34 1356 l 373 1385 l 442 1173 l 512 1396 l 847 1423 l 609 664 l 848 -68 l 509 -96 l 438 119 l 367 -107 l 35 -136 l 272 627 z "},"Y":{"ha":881,"x_min":34,"x_max":847,"o":"m 271 629 l 34 1356 l 373 1385 l 442 1173 l 512 1396 l 847 1423 l 610 668 l 610 -104 l 271 -133 l 271 629 z "},"Z":{"ha":882,"x_min":34,"x_max":848,"o":"m 458 1053 l 34 1017 l 34 1356 l 848 1424 l 848 1085 l 441 237 l 848 271 l 848 -68 l 34 -136 l 34 203 l 458 1053 z "},"[":{"ha":543,"x_min":34,"x_max":509,"o":"m 509 -96 l 34 -136 l 34 1356 l 509 1396 l 509 1057 l 373 1046 l 373 232 l 509 243 l 509 -96 z "},"\\":{"ha":982,"x_min":34,"x_max":948,"o":"m 625 -96 l 34 1274 l 357 1383 l 948 13 l 625 -96 z "},"]":{"ha":543,"x_min":34,"x_max":509,"o":"m 34 231 l 170 243 l 170 1057 l 34 1045 l 34 1385 l 509 1424 l 509 -68 l 34 -107 l 34 231 z "},"^":{"ha":744,"x_min":34,"x_max":710,"o":"m 710 972 l 517 823 l 370 981 l 246 805 l 34 927 l 345 1356 l 710 972 z "},"_":{"ha":882,"x_min":34,"x_max":848,"o":"m 848 -271 l 34 -339 l 34 -170 l 848 -102 l 848 -271 z "},"`":{"ha":475,"x_min":34,"x_max":441,"o":"m 34 1424 l 373 1396 l 441 989 l 170 1023 l 34 1424 z "},"a":{"ha":882,"x_min":34,"x_max":848,"o":"m 509 1057 l 373 1046 l 373 644 l 509 655 l 509 1057 m 373 -107 l 34 -136 l 34 1356 l 848 1424 l 848 -68 l 509 -96 l 509 316 l 373 305 l 373 -107 z "},"b":{"ha":882,"x_min":34,"x_max":848,"o":"m 373 232 l 509 243 l 509 480 l 373 469 l 373 232 m 509 1057 l 373 1046 l 373 808 l 509 819 l 509 1057 m 848 576 l 848 -68 l 34 -136 l 34 1356 l 848 1424 l 848 780 l 746 678 l 848 576 z "},"c":{"ha":882,"x_min":34,"x_max":848,"o":"m 509 243 l 509 480 l 848 509 l 848 -68 l 34 -136 l 34 1356 l 848 1424 l 848 848 l 509 819 l 509 1057 l 373 1046 l 373 232 l 509 243 z "},"d":{"ha":882,"x_min":34,"x_max":848,"o":"m 509 1057 l 373 1046 l 373 232 l 509 243 l 509 1057 m 701 -80 l 34 -136 l 34 1356 l 675 1410 l 848 1281 l 848 120 l 701 -80 z "},"e":{"ha":882,"x_min":34,"x_max":848,"o":"m 34 1356 l 848 1424 l 848 1085 l 373 1046 l 373 808 l 848 848 l 848 509 l 373 469 l 373 232 l 848 271 l 848 -68 l 34 -136 l 34 1356 z "},"f":{"ha":882,"x_min":34,"x_max":848,"o":"m 34 1356 l 848 1424 l 848 1085 l 373 1046 l 373 808 l 848 848 l 848 509 l 373 469 l 373 -107 l 34 -136 l 34 1356 z "},"g":{"ha":882,"x_min":34,"x_max":848,"o":"m 848 848 l 509 819 l 509 1057 l 373 1046 l 373 232 l 509 243 l 509 345 l 441 339 l 441 678 l 848 712 l 848 -68 l 34 -136 l 34 1356 l 848 1424 l 848 848 z "},"h":{"ha":882,"x_min":34,"x_max":848,"o":"m 373 -107 l 34 -136 l 34 1356 l 373 1385 l 373 808 l 509 819 l 509 1396 l 848 1424 l 848 -68 l 509 -96 l 509 480 l 373 469 l 373 -107 z "},"i":{"ha":407,"x_min":34,"x_max":373,"o":"m 373 -107 l 34 -136 l 34 1356 l 373 1385 l 373 -107 z "},"j":{"ha":882,"x_min":34,"x_max":848,"o":"m 509 1396 l 848 1424 l 848 -68 l 34 -136 l 34 203 l 509 243 l 509 1396 z "},"k":{"ha":882,"x_min":34,"x_max":983,"o":"m 373 252 l 373 -107 l 34 -136 l 34 1356 l 373 1385 l 373 808 l 509 819 l 509 1396 l 848 1424 l 848 509 l 614 489 l 983 116 l 724 -102 l 373 252 z "},"l":{"ha":882,"x_min":34,"x_max":848,"o":"m 373 232 l 848 271 l 848 -68 l 34 -136 l 34 1356 l 373 1385 l 373 232 z "},"m":{"ha":1356,"x_min":34,"x_max":1322,"o":"m 509 1057 l 373 1046 l 373 -107 l 34 -136 l 34 1356 l 848 1424 l 848 1385 l 1322 1424 l 1322 -68 l 983 -96 l 983 1057 l 848 1046 l 848 -107 l 509 -136 l 509 1057 z "},"n":{"ha":882,"x_min":34,"x_max":848,"o":"m 373 -107 l 34 -136 l 34 1356 l 848 1424 l 848 -68 l 509 -96 l 509 1057 l 373 1046 l 373 -107 z "},"o":{"ha":882,"x_min":34,"x_max":848,"o":"m 509 1057 l 373 1046 l 373 232 l 509 243 l 509 1057 m 34 1356 l 848 1424 l 848 -68 l 34 -136 l 34 1356 z "},"p":{"ha":882,"x_min":34,"x_max":848,"o":"m 509 1057 l 373 1046 l 373 808 l 509 819 l 509 1057 m 373 -107 l 34 -136 l 34 1356 l 848 1424 l 848 509 l 373 469 l 373 -107 z "},"q":{"ha":882,"x_min":34,"x_max":848,"o":"m 509 1057 l 373 1046 l 373 232 l 509 243 l 509 1057 m 34 1356 l 848 1424 l 848 -68 l 705 -80 l 780 -155 l 520 -373 l 266 -117 l 34 -136 l 34 1356 z "},"r":{"ha":882,"x_min":34,"x_max":983,"o":"m 509 1057 l 373 1046 l 373 808 l 509 819 l 509 1057 m 373 252 l 373 -107 l 34 -136 l 34 1356 l 848 1424 l 848 509 l 614 489 l 983 116 l 724 -102 l 373 252 z "},"s":{"ha":882,"x_min":34,"x_max":848,"o":"m 373 231 l 509 243 l 509 480 l 34 441 l 34 1356 l 848 1424 l 848 944 l 509 916 l 509 1057 l 373 1046 l 373 808 l 848 848 l 848 -68 l 34 -136 l 34 348 l 373 373 l 373 231 z "},"t":{"ha":882,"x_min":34,"x_max":848,"o":"m 610 -87 l 271 -116 l 271 1037 l 34 1017 l 34 1356 l 848 1424 l 848 1085 l 610 1065 l 610 -87 z "},"u":{"ha":882,"x_min":34,"x_max":848,"o":"m 509 1396 l 848 1424 l 848 -68 l 34 -136 l 34 1356 l 373 1385 l 373 232 l 509 243 l 509 1396 z "},"v":{"ha":882,"x_min":34,"x_max":848,"o":"m 34 1356 l 373 1390 l 441 237 l 509 1390 l 848 1424 l 712 -80 l 166 -125 l 34 1356 z "},"w":{"ha":1356,"x_min":34,"x_max":1322,"o":"m 848 232 l 983 243 l 983 1396 l 1322 1424 l 1322 -68 l 509 -136 l 509 -96 l 34 -136 l 34 1356 l 373 1385 l 373 232 l 509 243 l 509 1396 l 848 1424 l 848 232 z "},"x":{"ha":882,"x_min":34,"x_max":848,"o":"m 272 627 l 34 1356 l 373 1385 l 442 1173 l 512 1396 l 847 1423 l 609 664 l 848 -68 l 509 -96 l 438 119 l 367 -107 l 35 -136 l 272 627 z "},"y":{"ha":881,"x_min":34,"x_max":847,"o":"m 271 629 l 34 1356 l 373 1385 l 442 1173 l 512 1396 l 847 1423 l 610 668 l 610 -104 l 271 -133 l 271 629 z "},"z":{"ha":882,"x_min":34,"x_max":848,"o":"m 458 1053 l 34 1017 l 34 1356 l 848 1424 l 848 1085 l 441 237 l 848 271 l 848 -68 l 34 -136 l 34 203 l 458 1053 z "},"{":{"ha":543,"x_min":34,"x_max":509,"o":"m 509 -96 l 34 -136 l 34 1356 l 509 1396 l 509 1057 l 373 1046 l 373 232 l 509 243 l 509 -96 z "},"|":{"ha":407,"x_min":34,"x_max":373,"o":"m 373 -107 l 34 -136 l 34 1356 l 373 1385 l 373 -107 z "},"}":{"ha":543,"x_min":34,"x_max":509,"o":"m 34 231 l 170 243 l 170 1057 l 34 1045 l 34 1385 l 509 1424 l 509 -68 l 34 -107 l 34 231 z "},"~":{"ha":543,"x_min":34,"x_max":509,"o":"m 509 848 l 509 509 q 422 531 463 531 q 362 520 401 531 q 297 492 322 509 q 246 458 271 475 q 161 441 220 441 q 34 475 102 441 l 34 814 q 161 780 102 780 q 246 797 220 780 q 297 831 271 814 q 382 865 322 848 q 422 870 401 870 q 509 848 463 870 z "},"£":{"ha":949,"x_min":34,"x_max":916,"o":"m 34 774 l 102 780 l 102 1356 l 916 1424 l 916 848 l 576 819 l 576 1057 l 441 1046 l 441 808 l 509 814 l 509 475 l 441 469 l 441 232 l 916 271 l 916 -68 l 102 -136 l 102 441 l 34 435 l 34 774 z "},"¥":{"ha":882,"x_min":34,"x_max":848,"o":"m 610 353 l 610 -104 l 271 -133 l 271 325 l 34 305 l 34 644 l 260 663 l 34 1356 l 373 1385 l 442 1173 l 512 1396 l 847 1423 l 618 693 l 848 712 l 848 373 l 610 353 z "},"´":{"ha":475,"x_min":34,"x_max":441,"o":"m 441 1424 l 305 1023 l 34 989 l 102 1396 l 441 1424 z "},"÷":{"ha":566,"x_min":34,"x_max":532,"o":"m 507 831 l 532 492 l 58 458 l 34 796 l 507 831 m 452 407 l 452 102 l 113 73 l 113 378 l 452 407 m 452 1215 l 452 910 l 113 882 l 113 1187 l 452 1215 z "},"ˆ":{"ha":744,"x_min":34,"x_max":710,"o":"m 710 972 l 517 823 l 370 981 l 246 805 l 34 927 l 345 1356 l 710 972 z "},"˜":{"ha":543,"x_min":34,"x_max":509,"o":"m 509 1356 l 509 1017 q 422 1040 463 1040 q 362 1028 401 1040 q 297 1000 322 1017 q 246 966 271 983 q 161 949 220 949 q 34 983 102 949 l 34 1322 q 161 1289 102 1289 q 246 1305 220 1289 q 297 1339 271 1322 q 382 1373 322 1356 q 422 1379 401 1379 q 509 1356 463 1379 z "},"˝":{"ha":848,"x_min":34,"x_max":814,"o":"m 441 1424 l 305 1023 l 34 989 l 102 1396 l 441 1424 m 814 1424 l 678 1023 l 407 989 l 475 1396 l 814 1424 z "},"–":{"ha":746,"x_min":34,"x_max":712,"o":"m 712 780 l 712 509 l 34 475 l 34 746 l 712 780 z "},"—":{"ha":1356,"x_min":34,"x_max":1322,"o":"m 1322 814 l 1322 543 l 34 475 l 34 746 l 1322 814 z "},"‘":{"ha":475,"x_min":34,"x_max":441,"o":"m 441 1424 l 305 1023 l 34 989 l 102 1396 l 441 1424 z "},"’":{"ha":475,"x_min":34,"x_max":441,"o":"m 441 1424 l 305 1023 l 34 989 l 102 1396 l 441 1424 z "},"‚":{"ha":475,"x_min":34,"x_max":441,"o":"m 441 198 l 305 -203 l 34 -237 l 102 170 l 441 198 z "},"“":{"ha":848,"x_min":34,"x_max":814,"o":"m 441 1424 l 305 1023 l 34 989 l 102 1396 l 441 1424 m 814 1424 l 678 1023 l 407 989 l 475 1396 l 814 1424 z "},"”":{"ha":848,"x_min":34,"x_max":814,"o":"m 441 1424 l 305 1023 l 34 989 l 102 1396 l 441 1424 m 814 1424 l 678 1023 l 407 989 l 475 1396 l 814 1424 z "},"„":{"ha":848,"x_min":34,"x_max":814,"o":"m 441 198 l 305 -203 l 34 -237 l 102 170 l 441 198 m 814 198 l 678 -203 l 407 -237 l 475 170 l 814 198 z "},"•":{"ha":407,"x_min":34,"x_max":373,"o":"m 373 741 l 373 435 l 34 407 l 34 712 l 373 741 z "},"…":{"ha":1333,"x_min":34,"x_max":1299,"o":"m 373 198 l 373 -107 l 34 -136 l 34 170 l 373 198 m 836 198 l 836 -107 l 497 -136 l 497 170 l 836 198 m 1299 198 l 1299 -107 l 960 -136 l 960 170 l 1299 198 z "},"‹":{"ha":814,"x_min":34,"x_max":780,"o":"m 34 576 l 780 949 l 780 610 l 373 475 l 780 339 l 780 0 l 34 305 l 34 576 z "},"›":{"ha":814,"x_min":34,"x_max":780,"o":"m 780 373 l 34 0 l 34 339 l 441 475 l 34 610 l 34 949 l 780 644 l 780 373 z "},"€":{"ha":949,"x_min":34,"x_max":916,"o":"m 34 774 l 102 780 l 102 1356 l 916 1424 l 916 848 l 576 819 l 576 1057 l 441 1046 l 441 808 l 509 814 l 509 475 l 441 469 l 441 232 l 576 243 l 576 480 l 916 509 l 916 -68 l 102 -136 l 102 441 l 34 435 l 34 774 z "},"™":{"ha":509,"x_min":34,"x_max":475,"o":"m 475 949 l 475 644 l 401 644 l 401 785 l 371 644 l 342 644 l 312 784 l 312 644 l 237 644 l 237 949 l 327 949 l 357 789 l 386 949 l 475 949 m 85 882 l 34 882 l 34 949 l 203 949 l 203 882 l 153 882 l 153 644 l 85 644 l 85 882 z "},"−":{"ha":566,"x_min":34,"x_max":532,"o":"m 507 831 l 532 492 l 58 458 l 34 796 l 507 831 z "},"¡":{"ha":407,"x_min":34,"x_max":373,"o":"m 34 1023 l 34 1328 l 373 1356 l 373 1051 l 34 1023 m 373 927 l 373 -136 l 34 -164 l 34 894 l 373 927 z "},"¿":{"ha":882,"x_min":34,"x_max":848,"o":"m 271 1023 l 271 1328 l 610 1356 l 610 1051 l 271 1023 m 373 576 l 373 164 l 509 175 l 509 277 l 441 271 l 441 509 l 848 543 l 848 -136 l 34 -203 l 34 752 l 271 783 l 271 894 l 610 927 l 610 596 l 373 576 z "},"Œ":{"ha":1356,"x_min":34,"x_max":1322,"o":"m 509 1057 l 373 1046 l 373 232 l 509 243 l 509 1057 m 848 1385 l 1322 1424 l 1322 1085 l 848 1046 l 848 808 l 1322 848 l 1322 509 l 848 469 l 848 232 l 1322 271 l 1322 -68 l 509 -136 l 509 -96 l 34 -136 l 34 1356 l 848 1424 l 848 1385 z "},"œ":{"ha":1356,"x_min":34,"x_max":1322,"o":"m 509 1057 l 373 1046 l 373 232 l 509 243 l 509 1057 m 848 1385 l 1322 1424 l 1322 1085 l 848 1046 l 848 808 l 1322 848 l 1322 509 l 848 469 l 848 232 l 1322 271 l 1322 -68 l 509 -136 l 509 -96 l 34 -136 l 34 1356 l 848 1424 l 848 1385 z "},"À":{"ha":882,"x_min":34,"x_max":848,"o":"m 509 1057 l 373 1046 l 373 644 l 509 655 l 509 1057 m 373 -107 l 34 -136 l 34 1356 l 848 1424 l 848 -68 l 509 -96 l 509 316 l 373 305 l 373 -107 m 305 1639 l 473 1625 l 506 1424 l 372 1441 l 305 1639 z "},"Á":{"ha":882,"x_min":34,"x_max":848,"o":"m 509 1057 l 373 1046 l 373 644 l 509 655 l 509 1057 m 373 -107 l 34 -136 l 34 1356 l 848 1424 l 848 -68 l 509 -96 l 509 316 l 373 305 l 373 -107 m 574 1628 l 507 1430 l 373 1413 l 406 1613 l 574 1628 z "},"Â":{"ha":882,"x_min":34,"x_max":848,"o":"m 509 1057 l 373 1046 l 373 644 l 509 655 l 509 1057 m 373 -107 l 34 -136 l 34 1356 l 848 1424 l 848 -68 l 509 -96 l 509 316 l 373 305 l 373 -107 m 610 1510 l 512 1434 l 438 1514 l 375 1424 l 268 1486 l 425 1704 l 610 1510 z "},"Ã":{"ha":882,"x_min":34,"x_max":848,"o":"m 509 1057 l 373 1046 l 373 644 l 509 655 l 509 1057 m 373 -107 l 34 -136 l 34 1356 l 848 1424 l 848 -68 l 509 -96 l 509 316 l 373 305 l 373 -107 m 552 1636 l 552 1459 q 507 1471 528 1471 q 476 1465 496 1471 q 442 1451 455 1459 q 415 1433 429 1442 q 372 1424 402 1424 q 305 1442 340 1424 l 305 1618 q 372 1600 340 1600 q 415 1609 402 1600 q 442 1627 429 1618 q 486 1645 455 1636 q 507 1647 496 1647 q 552 1636 528 1647 z "},"Ä":{"ha":882,"x_min":34,"x_max":848,"o":"m 509 1057 l 373 1046 l 373 644 l 509 655 l 509 1057 m 373 -107 l 34 -136 l 34 1356 l 848 1424 l 848 -68 l 509 -96 l 509 316 l 373 305 l 373 -107 m 305 1424 q 233 1454 263 1424 q 203 1526 203 1484 q 233 1598 203 1568 q 305 1628 263 1628 q 377 1598 347 1628 q 407 1526 407 1568 q 377 1454 407 1484 q 305 1424 347 1424 m 543 1424 q 471 1454 500 1424 q 441 1526 441 1484 q 471 1598 441 1568 q 543 1628 500 1628 q 614 1598 585 1628 q 644 1526 644 1568 q 614 1454 644 1484 q 543 1424 585 1424 z "},"Å":{"ha":882,"x_min":34,"x_max":848,"o":"m 509 1057 l 373 1046 l 373 644 l 509 655 l 509 1057 m 441 1458 q 489 1478 469 1458 q 509 1526 509 1498 q 489 1574 509 1554 q 441 1594 469 1594 q 393 1574 413 1594 q 373 1526 373 1554 q 393 1478 373 1498 q 441 1458 413 1458 m 555 1400 l 848 1424 l 848 -68 l 509 -96 l 509 316 l 373 305 l 373 -107 l 34 -136 l 34 1356 l 349 1383 q 321 1406 334 1392 q 271 1526 271 1455 q 321 1646 271 1596 q 441 1695 370 1695 q 561 1646 511 1695 q 610 1526 610 1596 q 561 1406 610 1455 l 555 1400 z "},"Æ":{"ha":1356,"x_min":34,"x_max":1322,"o":"m 509 316 l 373 305 l 373 -107 l 34 -136 l 34 1356 l 848 1424 l 848 1385 l 1322 1424 l 1322 1085 l 848 1046 l 848 808 l 1322 848 l 1322 509 l 848 469 l 848 232 l 1322 271 l 1322 -68 l 509 -136 l 509 316 m 509 1057 l 373 1046 l 373 644 l 509 655 l 509 1057 z "},"Ç":{"ha":882,"x_min":34,"x_max":848,"o":"m 416 -104 l 34 -136 l 34 1356 l 848 1424 l 848 848 l 509 819 l 509 1057 l 373 1046 l 373 232 l 509 243 l 509 480 l 848 509 l 848 -68 l 527 -94 l 527 -119 l 604 -130 l 604 -441 l 339 -418 l 339 -198 l 472 -209 l 472 -286 l 450 -284 l 450 -317 l 494 -321 l 494 -186 l 416 -180 l 416 -104 z "},"È":{"ha":882,"x_min":34,"x_max":848,"o":"m 34 1356 l 848 1424 l 848 1085 l 373 1046 l 373 808 l 848 848 l 848 509 l 373 469 l 373 232 l 848 271 l 848 -68 l 34 -136 l 34 1356 m 307 1628 l 474 1613 l 507 1413 l 374 1430 l 307 1628 z "},"É":{"ha":882,"x_min":34,"x_max":848,"o":"m 34 1356 l 848 1424 l 848 1085 l 373 1046 l 373 808 l 848 848 l 848 509 l 373 469 l 373 232 l 848 271 l 848 -68 l 34 -136 l 34 1356 m 574 1628 l 508 1430 l 374 1413 l 407 1613 l 574 1628 z "},"Ê":{"ha":882,"x_min":34,"x_max":848,"o":"m 34 1356 l 848 1424 l 848 1085 l 373 1046 l 373 808 l 848 848 l 848 509 l 373 469 l 373 232 l 848 271 l 848 -68 l 34 -136 l 34 1356 m 612 1510 l 514 1434 l 440 1514 l 377 1424 l 270 1486 l 427 1704 l 612 1510 z "},"Ë":{"ha":882,"x_min":34,"x_max":848,"o":"m 34 1356 l 848 1424 l 848 1085 l 373 1046 l 373 808 l 848 848 l 848 509 l 373 469 l 373 232 l 848 271 l 848 -68 l 34 -136 l 34 1356 m 322 1424 q 250 1454 280 1424 q 220 1526 220 1484 q 250 1598 220 1568 q 322 1628 280 1628 q 394 1598 364 1628 q 424 1526 424 1568 q 394 1454 424 1484 q 322 1424 364 1424 m 559 1424 q 488 1454 517 1424 q 458 1526 458 1484 q 488 1598 458 1568 q 559 1628 517 1628 q 631 1598 602 1628 q 661 1526 661 1568 q 631 1454 661 1484 q 559 1424 602 1424 z "},"Ì":{"ha":407,"x_min":34,"x_max":373,"o":"m 373 -107 l 34 -136 l 34 1356 l 373 1385 l 373 -107 m 69 1628 l 237 1613 l 270 1413 l 136 1430 l 69 1628 z "},"Í":{"ha":407,"x_min":34,"x_max":373,"o":"m 373 -107 l 34 -136 l 34 1356 l 373 1385 l 373 -107 m 337 1628 l 271 1430 l 136 1413 l 170 1613 l 337 1628 z "},"Î":{"ha":407,"x_min":33,"x_max":375,"o":"m 373 -107 l 34 -136 l 34 1356 l 373 1385 l 373 -107 m 375 1510 l 277 1434 l 203 1514 l 140 1424 l 33 1486 l 190 1704 l 375 1510 z "},"Ï":{"ha":407,"x_min":-17,"x_max":424,"o":"m 373 -107 l 34 -136 l 34 1356 l 373 1385 l 373 -107 m 85 1424 q 13 1454 43 1424 q -17 1526 -17 1484 q 13 1598 -17 1568 q 85 1628 43 1628 q 157 1598 127 1628 q 186 1526 186 1568 q 157 1454 186 1484 q 85 1424 127 1424 m 322 1424 q 250 1454 280 1424 q 220 1526 220 1484 q 250 1598 220 1568 q 322 1628 280 1628 q 394 1598 364 1628 q 424 1526 424 1568 q 394 1454 424 1484 q 322 1424 364 1424 z "},"Ð":{"ha":882,"x_min":-34,"x_max":848,"o":"m 373 707 l 441 713 l 441 543 l 373 538 l 373 232 l 509 243 l 509 1057 l 373 1046 l 373 707 m -34 673 l 34 679 l 34 1356 l 675 1410 l 848 1281 l 848 120 l 701 -80 l 34 -136 l 34 509 l -34 504 l -34 673 z "},"Ñ":{"ha":882,"x_min":34,"x_max":848,"o":"m 373 -107 l 34 -136 l 34 1356 l 848 1424 l 848 -68 l 509 -96 l 509 1057 l 373 1046 l 373 -107 m 564 1636 l 564 1459 q 519 1471 541 1471 q 488 1465 509 1471 q 454 1451 467 1459 q 428 1433 441 1442 q 384 1424 414 1424 q 317 1442 353 1424 l 317 1618 q 384 1600 353 1600 q 428 1609 414 1600 q 454 1627 441 1618 q 498 1645 467 1636 q 519 1647 509 1647 q 564 1636 541 1647 z "},"Ò":{"ha":882,"x_min":34,"x_max":848,"o":"m 509 1057 l 373 1046 l 373 232 l 509 243 l 509 1057 m 34 1356 l 848 1424 l 848 -68 l 34 -136 l 34 1356 m 307 1628 l 474 1613 l 507 1413 l 374 1430 l 307 1628 z "},"Ó":{"ha":882,"x_min":34,"x_max":848,"o":"m 509 1057 l 373 1046 l 373 232 l 509 243 l 509 1057 m 34 1356 l 848 1424 l 848 -68 l 34 -136 l 34 1356 m 574 1628 l 508 1430 l 374 1413 l 407 1613 l 574 1628 z "},"Ô":{"ha":882,"x_min":34,"x_max":848,"o":"m 509 1057 l 373 1046 l 373 232 l 509 243 l 509 1057 m 34 1356 l 848 1424 l 848 -68 l 34 -136 l 34 1356 m 612 1510 l 514 1434 l 440 1514 l 377 1424 l 270 1486 l 427 1704 l 612 1510 z "},"Õ":{"ha":882,"x_min":34,"x_max":848,"o":"m 509 1057 l 373 1046 l 373 232 l 509 243 l 509 1057 m 34 1356 l 848 1424 l 848 -68 l 34 -136 l 34 1356 m 564 1636 l 564 1459 q 519 1471 541 1471 q 488 1465 509 1471 q 454 1451 467 1459 q 428 1433 441 1442 q 384 1424 414 1424 q 317 1442 353 1424 l 317 1618 q 384 1600 353 1600 q 428 1609 414 1600 q 454 1627 441 1618 q 498 1645 467 1636 q 519 1647 509 1647 q 564 1636 541 1647 z "},"Ö":{"ha":882,"x_min":34,"x_max":848,"o":"m 509 1057 l 373 1046 l 373 232 l 509 243 l 509 1057 m 34 1356 l 848 1424 l 848 -68 l 34 -136 l 34 1356 m 322 1424 q 250 1454 280 1424 q 220 1526 220 1484 q 250 1598 220 1568 q 322 1628 280 1628 q 394 1598 364 1628 q 424 1526 424 1568 q 394 1454 424 1484 q 322 1424 364 1424 m 559 1424 q 488 1454 517 1424 q 458 1526 458 1484 q 488 1598 458 1568 q 559 1628 517 1628 q 631 1598 602 1628 q 661 1526 661 1568 q 631 1454 661 1484 q 559 1424 602 1424 z "},"×":{"ha":746,"x_min":34,"x_max":712,"o":"m 543 807 l 712 814 l 712 475 l 543 467 l 543 271 l 203 243 l 203 450 l 34 441 l 34 785 l 203 793 l 203 1023 l 543 1051 l 543 807 z "},"Ø":{"ha":882,"x_min":-34,"x_max":916,"o":"m 34 -10 l 34 1356 l 809 1421 l 848 1492 l 916 1458 l 848 1333 l 848 -68 l 53 -134 l 34 -170 l -34 -136 l 34 -10 m 509 707 l 373 456 l 373 232 l 509 243 l 509 707 m 373 616 l 509 866 l 509 1057 l 373 1046 l 373 616 z "},"Ù":{"ha":882,"x_min":34,"x_max":848,"o":"m 509 1396 l 848 1424 l 848 -68 l 34 -136 l 34 1356 l 373 1385 l 373 232 l 509 243 l 509 1396 m 307 1628 l 474 1613 l 507 1413 l 374 1430 l 307 1628 z "},"Ú":{"ha":882,"x_min":34,"x_max":848,"o":"m 509 1396 l 848 1424 l 848 -68 l 34 -136 l 34 1356 l 373 1385 l 373 232 l 509 243 l 509 1396 m 574 1628 l 508 1430 l 374 1413 l 407 1613 l 574 1628 z "},"Û":{"ha":882,"x_min":34,"x_max":848,"o":"m 509 1396 l 848 1424 l 848 -68 l 34 -136 l 34 1356 l 373 1385 l 373 232 l 509 243 l 509 1396 m 612 1510 l 514 1434 l 440 1514 l 377 1424 l 270 1486 l 427 1704 l 612 1510 z "},"Ü":{"ha":882,"x_min":34,"x_max":848,"o":"m 509 1396 l 848 1424 l 848 -68 l 34 -136 l 34 1356 l 373 1385 l 373 232 l 509 243 l 509 1396 m 322 1424 q 250 1454 280 1424 q 220 1526 220 1484 q 250 1598 220 1568 q 322 1628 280 1628 q 394 1598 364 1628 q 424 1526 424 1568 q 394 1454 424 1484 q 322 1424 364 1424 m 559 1424 q 488 1454 517 1424 q 458 1526 458 1484 q 488 1598 458 1568 q 559 1628 517 1628 q 631 1598 602 1628 q 661 1526 661 1568 q 631 1454 661 1484 q 559 1424 602 1424 z "},"Ý":{"ha":881,"x_min":34,"x_max":847,"o":"m 271 629 l 34 1356 l 373 1385 l 442 1173 l 512 1396 l 847 1423 l 610 668 l 610 -104 l 271 -133 l 271 629 m 574 1628 l 508 1430 l 374 1413 l 407 1613 l 574 1628 z "},"Þ":{"ha":882,"x_min":34,"x_max":848,"o":"m 373 1249 l 848 1289 l 848 373 l 373 334 l 373 -243 l 34 -271 l 34 1356 l 373 1385 l 373 1249 m 373 673 l 509 684 l 509 921 l 373 910 l 373 673 z "},"ß":{"ha":882,"x_min":34,"x_max":848,"o":"m 430 237 l 509 243 l 509 480 l 431 474 l 431 813 l 509 819 l 509 1057 l 373 1046 l 378 -107 l 34 -136 l 34 1356 l 848 1424 l 848 780 l 746 678 l 848 576 l 848 -68 l 429 -103 l 430 237 z "},"à":{"ha":882,"x_min":34,"x_max":848,"o":"m 509 1057 l 373 1046 l 373 644 l 509 655 l 509 1057 m 373 -107 l 34 -136 l 34 1356 l 848 1424 l 848 -68 l 509 -96 l 509 316 l 373 305 l 373 -107 m 305 1639 l 473 1625 l 506 1424 l 372 1441 l 305 1639 z "},"á":{"ha":882,"x_min":34,"x_max":848,"o":"m 509 1057 l 373 1046 l 373 644 l 509 655 l 509 1057 m 373 -107 l 34 -136 l 34 1356 l 848 1424 l 848 -68 l 509 -96 l 509 316 l 373 305 l 373 -107 m 574 1628 l 507 1430 l 373 1413 l 406 1613 l 574 1628 z "},"â":{"ha":882,"x_min":34,"x_max":848,"o":"m 509 1057 l 373 1046 l 373 644 l 509 655 l 509 1057 m 373 -107 l 34 -136 l 34 1356 l 848 1424 l 848 -68 l 509 -96 l 509 316 l 373 305 l 373 -107 m 610 1510 l 512 1434 l 438 1514 l 375 1424 l 268 1486 l 425 1704 l 610 1510 z "},"ã":{"ha":882,"x_min":34,"x_max":848,"o":"m 509 1057 l 373 1046 l 373 644 l 509 655 l 509 1057 m 373 -107 l 34 -136 l 34 1356 l 848 1424 l 848 -68 l 509 -96 l 509 316 l 373 305 l 373 -107 m 552 1636 l 552 1459 q 507 1471 528 1471 q 476 1465 496 1471 q 442 1451 455 1459 q 415 1433 429 1442 q 372 1424 402 1424 q 305 1442 340 1424 l 305 1618 q 372 1600 340 1600 q 415 1609 402 1600 q 442 1627 429 1618 q 486 1645 455 1636 q 507 1647 496 1647 q 552 1636 528 1647 z "},"ä":{"ha":882,"x_min":34,"x_max":848,"o":"m 509 1057 l 373 1046 l 373 644 l 509 655 l 509 1057 m 373 -107 l 34 -136 l 34 1356 l 848 1424 l 848 -68 l 509 -96 l 509 316 l 373 305 l 373 -107 m 305 1424 q 233 1454 263 1424 q 203 1526 203 1484 q 233 1598 203 1568 q 305 1628 263 1628 q 377 1598 347 1628 q 407 1526 407 1568 q 377 1454 407 1484 q 305 1424 347 1424 m 543 1424 q 471 1454 500 1424 q 441 1526 441 1484 q 471 1598 441 1568 q 543 1628 500 1628 q 614 1598 585 1628 q 644 1526 644 1568 q 614 1454 644 1484 q 543 1424 585 1424 z "},"å":{"ha":882,"x_min":34,"x_max":848,"o":"m 509 1057 l 373 1046 l 373 644 l 509 655 l 509 1057 m 441 1458 q 489 1478 469 1458 q 509 1526 509 1498 q 489 1574 509 1554 q 441 1594 469 1594 q 393 1574 413 1594 q 373 1526 373 1554 q 393 1478 373 1498 q 441 1458 413 1458 m 555 1400 l 848 1424 l 848 -68 l 509 -96 l 509 316 l 373 305 l 373 -107 l 34 -136 l 34 1356 l 349 1383 q 321 1406 334 1392 q 271 1526 271 1455 q 321 1646 271 1596 q 441 1695 370 1695 q 561 1646 511 1695 q 610 1526 610 1596 q 561 1406 610 1455 l 555 1400 z "},"æ":{"ha":1356,"x_min":34,"x_max":1322,"o":"m 509 316 l 373 305 l 373 -107 l 34 -136 l 34 1356 l 848 1424 l 848 1385 l 1322 1424 l 1322 1085 l 848 1046 l 848 808 l 1322 848 l 1322 509 l 848 469 l 848 232 l 1322 271 l 1322 -68 l 509 -136 l 509 316 m 509 1057 l 373 1046 l 373 644 l 509 655 l 509 1057 z "},"ç":{"ha":882,"x_min":34,"x_max":848,"o":"m 416 -104 l 34 -136 l 34 1356 l 848 1424 l 848 848 l 509 819 l 509 1057 l 373 1046 l 373 232 l 509 243 l 509 480 l 848 509 l 848 -68 l 527 -94 l 527 -119 l 604 -130 l 604 -441 l 339 -418 l 339 -198 l 472 -209 l 472 -286 l 450 -284 l 450 -317 l 494 -321 l 494 -186 l 416 -180 l 416 -104 z "},"è":{"ha":882,"x_min":34,"x_max":848,"o":"m 34 1356 l 848 1424 l 848 1085 l 373 1046 l 373 808 l 848 848 l 848 509 l 373 469 l 373 232 l 848 271 l 848 -68 l 34 -136 l 34 1356 m 307 1628 l 474 1613 l 507 1413 l 374 1430 l 307 1628 z "},"é":{"ha":882,"x_min":34,"x_max":848,"o":"m 34 1356 l 848 1424 l 848 1085 l 373 1046 l 373 808 l 848 848 l 848 509 l 373 469 l 373 232 l 848 271 l 848 -68 l 34 -136 l 34 1356 m 574 1628 l 508 1430 l 374 1413 l 407 1613 l 574 1628 z "},"ê":{"ha":882,"x_min":34,"x_max":848,"o":"m 34 1356 l 848 1424 l 848 1085 l 373 1046 l 373 808 l 848 848 l 848 509 l 373 469 l 373 232 l 848 271 l 848 -68 l 34 -136 l 34 1356 m 612 1510 l 514 1434 l 440 1514 l 377 1424 l 270 1486 l 427 1704 l 612 1510 z "},"ë":{"ha":882,"x_min":34,"x_max":848,"o":"m 34 1356 l 848 1424 l 848 1085 l 373 1046 l 373 808 l 848 848 l 848 509 l 373 469 l 373 232 l 848 271 l 848 -68 l 34 -136 l 34 1356 m 322 1424 q 250 1454 280 1424 q 220 1526 220 1484 q 250 1598 220 1568 q 322 1628 280 1628 q 394 1598 364 1628 q 424 1526 424 1568 q 394 1454 424 1484 q 322 1424 364 1424 m 559 1424 q 488 1454 517 1424 q 458 1526 458 1484 q 488 1598 458 1568 q 559 1628 517 1628 q 631 1598 602 1628 q 661 1526 661 1568 q 631 1454 661 1484 q 559 1424 602 1424 z "},"ì":{"ha":407,"x_min":34,"x_max":373,"o":"m 373 -107 l 34 -136 l 34 1356 l 373 1385 l 373 -107 m 69 1628 l 237 1613 l 270 1413 l 136 1430 l 69 1628 z "},"í":{"ha":407,"x_min":34,"x_max":373,"o":"m 373 -107 l 34 -136 l 34 1356 l 373 1385 l 373 -107 m 337 1628 l 271 1430 l 136 1413 l 170 1613 l 337 1628 z "},"î":{"ha":407,"x_min":33,"x_max":375,"o":"m 373 -107 l 34 -136 l 34 1356 l 373 1385 l 373 -107 m 375 1510 l 277 1434 l 203 1514 l 140 1424 l 33 1486 l 190 1704 l 375 1510 z "},"ï":{"ha":407,"x_min":-17,"x_max":424,"o":"m 373 -107 l 34 -136 l 34 1356 l 373 1385 l 373 -107 m 85 1424 q 13 1454 43 1424 q -17 1526 -17 1484 q 13 1598 -17 1568 q 85 1628 43 1628 q 157 1598 127 1628 q 186 1526 186 1568 q 157 1454 186 1484 q 85 1424 127 1424 m 322 1424 q 250 1454 280 1424 q 220 1526 220 1484 q 250 1598 220 1568 q 322 1628 280 1628 q 394 1598 364 1628 q 424 1526 424 1568 q 394 1454 424 1484 q 322 1424 364 1424 z "},"ð":{"ha":882,"x_min":34,"x_max":848,"o":"m 509 621 l 373 610 l 373 232 l 509 243 l 509 621 m 730 1140 l 844 989 l 848 989 l 848 -68 l 34 -136 l 34 921 l 500 960 l 393 1103 l 237 1085 l 203 1153 l 344 1168 l 203 1356 l 543 1390 l 681 1206 l 814 1221 l 848 1153 l 730 1140 z "},"ñ":{"ha":882,"x_min":34,"x_max":848,"o":"m 373 -107 l 34 -136 l 34 1356 l 848 1424 l 848 -68 l 509 -96 l 509 1057 l 373 1046 l 373 -107 m 564 1636 l 564 1459 q 519 1471 541 1471 q 488 1465 509 1471 q 454 1451 467 1459 q 428 1433 441 1442 q 384 1424 414 1424 q 317 1442 353 1424 l 317 1618 q 384 1600 353 1600 q 428 1609 414 1600 q 454 1627 441 1618 q 498 1645 467 1636 q 519 1647 509 1647 q 564 1636 541 1647 z "},"ò":{"ha":882,"x_min":34,"x_max":848,"o":"m 509 1057 l 373 1046 l 373 232 l 509 243 l 509 1057 m 34 1356 l 848 1424 l 848 -68 l 34 -136 l 34 1356 m 307 1628 l 474 1613 l 507 1413 l 374 1430 l 307 1628 z "},"ó":{"ha":882,"x_min":34,"x_max":848,"o":"m 509 1057 l 373 1046 l 373 232 l 509 243 l 509 1057 m 34 1356 l 848 1424 l 848 -68 l 34 -136 l 34 1356 m 574 1628 l 508 1430 l 374 1413 l 407 1613 l 574 1628 z "},"ô":{"ha":882,"x_min":34,"x_max":848,"o":"m 509 1057 l 373 1046 l 373 232 l 509 243 l 509 1057 m 34 1356 l 848 1424 l 848 -68 l 34 -136 l 34 1356 m 612 1510 l 514 1434 l 440 1514 l 377 1424 l 270 1486 l 427 1704 l 612 1510 z "},"õ":{"ha":882,"x_min":34,"x_max":848,"o":"m 509 1057 l 373 1046 l 373 232 l 509 243 l 509 1057 m 34 1356 l 848 1424 l 848 -68 l 34 -136 l 34 1356 m 564 1636 l 564 1459 q 519 1471 541 1471 q 488 1465 509 1471 q 454 1451 467 1459 q 428 1433 441 1442 q 384 1424 414 1424 q 317 1442 353 1424 l 317 1618 q 384 1600 353 1600 q 428 1609 414 1600 q 454 1627 441 1618 q 498 1645 467 1636 q 519 1647 509 1647 q 564 1636 541 1647 z "},"ö":{"ha":882,"x_min":34,"x_max":848,"o":"m 509 1057 l 373 1046 l 373 232 l 509 243 l 509 1057 m 34 1356 l 848 1424 l 848 -68 l 34 -136 l 34 1356 m 322 1424 q 250 1454 280 1424 q 220 1526 220 1484 q 250 1598 220 1568 q 322 1628 280 1628 q 394 1598 364 1628 q 424 1526 424 1568 q 394 1454 424 1484 q 322 1424 364 1424 m 559 1424 q 488 1454 517 1424 q 458 1526 458 1484 q 488 1598 458 1568 q 559 1628 517 1628 q 631 1598 602 1628 q 661 1526 661 1568 q 631 1454 661 1484 q 559 1424 602 1424 z "},"ø":{"ha":882,"x_min":-34,"x_max":916,"o":"m 34 -10 l 34 1356 l 809 1421 l 848 1492 l 916 1458 l 848 1333 l 848 -68 l 53 -134 l 34 -170 l -34 -136 l 34 -10 m 509 707 l 373 456 l 373 232 l 509 243 l 509 707 m 373 616 l 509 866 l 509 1057 l 373 1046 l 373 616 z "},"ù":{"ha":882,"x_min":34,"x_max":848,"o":"m 509 1396 l 848 1424 l 848 -68 l 34 -136 l 34 1356 l 373 1385 l 373 232 l 509 243 l 509 1396 m 307 1628 l 474 1613 l 507 1413 l 374 1430 l 307 1628 z "},"ú":{"ha":882,"x_min":34,"x_max":848,"o":"m 509 1396 l 848 1424 l 848 -68 l 34 -136 l 34 1356 l 373 1385 l 373 232 l 509 243 l 509 1396 m 574 1628 l 508 1430 l 374 1413 l 407 1613 l 574 1628 z "},"û":{"ha":882,"x_min":34,"x_max":848,"o":"m 509 1396 l 848 1424 l 848 -68 l 34 -136 l 34 1356 l 373 1385 l 373 232 l 509 243 l 509 1396 m 612 1510 l 514 1434 l 440 1514 l 377 1424 l 270 1486 l 427 1704 l 612 1510 z "},"ü":{"ha":882,"x_min":34,"x_max":848,"o":"m 509 1396 l 848 1424 l 848 -68 l 34 -136 l 34 1356 l 373 1385 l 373 232 l 509 243 l 509 1396 m 322 1424 q 250 1454 280 1424 q 220 1526 220 1484 q 250 1598 220 1568 q 322 1628 280 1628 q 394 1598 364 1628 q 424 1526 424 1568 q 394 1454 424 1484 q 322 1424 364 1424 m 559 1424 q 488 1454 517 1424 q 458 1526 458 1484 q 488 1598 458 1568 q 559 1628 517 1628 q 631 1598 602 1628 q 661 1526 661 1568 q 631 1454 661 1484 q 559 1424 602 1424 z "},"ý":{"ha":881,"x_min":34,"x_max":847,"o":"m 271 629 l 34 1356 l 373 1385 l 442 1173 l 512 1396 l 847 1423 l 610 668 l 610 -104 l 271 -133 l 271 629 m 574 1628 l 508 1430 l 374 1413 l 407 1613 l 574 1628 z "},"þ":{"ha":882,"x_min":34,"x_max":848,"o":"m 373 1249 l 848 1289 l 848 373 l 373 334 l 373 -243 l 34 -271 l 34 1356 l 373 1385 l 373 1249 m 373 673 l 509 684 l 509 921 l 373 910 l 373 673 z "},"ÿ":{"ha":881,"x_min":34,"x_max":847,"o":"m 271 629 l 34 1356 l 373 1385 l 442 1173 l 512 1396 l 847 1423 l 610 668 l 610 -104 l 271 -133 l 271 629 m 322 1424 q 250 1454 280 1424 q 220 1526 220 1484 q 250 1598 220 1568 q 322 1628 280 1628 q 394 1598 364 1628 q 424 1526 424 1568 q 394 1454 424 1484 q 322 1424 364 1424 m 559 1424 q 488 1454 517 1424 q 458 1526 458 1484 q 488 1598 458 1568 q 559 1628 517 1628 q 631 1598 602 1628 q 661 1526 661 1568 q 631 1454 661 1484 q 559 1424 602 1424 z "},"̀":{"ha":269,"x_min":34,"x_max":235,"o":"m 34 1628 l 201 1613 l 235 1413 l 101 1430 l 34 1628 z "},"́":{"ha":269,"x_min":34,"x_max":235,"o":"m 235 1628 l 168 1430 l 34 1413 l 67 1613 l 235 1628 z "},"̂":{"ha":410,"x_min":34,"x_max":376,"o":"m 376 1510 l 278 1434 l 204 1514 l 141 1424 l 34 1486 l 191 1704 l 376 1510 z "},"̃":{"ha":315,"x_min":34,"x_max":281,"o":"m 281 1636 l 281 1459 q 236 1471 257 1471 q 204 1465 225 1471 q 171 1451 184 1459 q 144 1433 157 1442 q 100 1424 131 1424 q 34 1442 69 1424 l 34 1618 q 100 1600 69 1600 q 144 1609 131 1600 q 171 1627 157 1618 q 215 1645 184 1636 q 236 1647 225 1647 q 281 1636 257 1647 z "},"̈":{"ha":509,"x_min":34,"x_max":475,"o":"m 136 1424 q 64 1454 94 1424 q 34 1526 34 1484 q 64 1598 34 1568 q 136 1628 94 1628 q 208 1598 178 1628 q 237 1526 237 1568 q 208 1454 237 1484 q 136 1424 178 1424 m 373 1424 q 301 1454 331 1424 q 271 1526 271 1484 q 301 1598 271 1568 q 373 1628 331 1628 q 445 1598 415 1628 q 475 1526 475 1568 q 445 1454 475 1484 q 373 1424 415 1424 z "},"̊":{"ha":407,"x_min":34,"x_max":373,"o":"m 203 1356 q 83 1406 133 1356 q 34 1526 34 1455 q 83 1646 34 1596 q 203 1695 133 1695 q 323 1646 274 1695 q 373 1526 373 1596 q 323 1406 373 1455 q 203 1356 274 1356 m 203 1458 q 251 1478 231 1458 q 271 1526 271 1498 q 251 1574 271 1554 q 203 1594 231 1594 q 156 1574 176 1594 q 136 1526 136 1554 q 156 1478 136 1498 q 203 1458 176 1458 z "}}}
